<svg width="40" height="40" fill="none" xmlns="http://www.w3.org/2000/svg">
  <path d="M24.5 6H32c1.6569 0 3 1.34315 3 3v21c0 1.6569-1.3431 3-3 3h-7.5" stroke="currentColor" stroke-width="1.7" stroke-linecap="round" stroke-linejoin="round"/>
  <path d="M12.7778 33.2857c-.3906.2293-.815.4093-1.2643.5313-.4394.1192-.9025.183-1.3809.183C7.29794 34 5 31.7614 5 29s2.29794-5 5.1326-5c.4784 0 .9415.0638 1.3809.183" stroke="currentColor" stroke-width="1.7" stroke-linecap="round"/>
  <path d="m15 24 4.4444 10 4.4445-10M16.7059 10v8c0 1.1046.8955 2 2 2h3c1.1046 0 2-.8954 2-2v-8M6 16v-6h4.4167c1.1045 0 2 .8954 2 2v2c0 1.1046-.8955 2-2 2H9.5M6 16v4m0-4h3.5m0 0 3.5 4" stroke="currentColor" stroke-width="1.7" stroke-linecap="round" stroke-linejoin="round"/>
</svg>
