<svg width="40" height="40" fill="none" xmlns="http://www.w3.org/2000/svg">
  <path d="M7.71672 31.0269h4.99998V12.6935H7.71672v18.3334ZM7.30005 7.6402c0 1.62333 1.30667 2.94 2.91665 2.94 1.6117 0 2.9167-1.31667 2.9167-2.94 0-1.62334-1.3067-2.94-2.9167-2.94-1.60998 0-2.91665 1.31666-2.91665 2.94ZM27.7167 31.0269h5v-11.265c0-4.8022-2.8099-6.8745-5.7313-7.0558-2.4047-.1491-4.4388.5316-5.9354 1.5521v-1.5647h-4.9999v18.3334H21.05v-9.34c0-5.1884 6.6667-5.6134 6.6667 0v9.34Z" stroke="currentColor" stroke-width="1.7" stroke-linejoin="round"/>
</svg>
