<svg width="40" height="40" fill="none" xmlns="http://www.w3.org/2000/svg">
  <path d="M8.30005 25.9625c.16978-.5133.72004-.616 1.22846-.4445 1.21219.432 2.20779 1.327 2.77349 2.4918.0194.0441.036.0891.0503.1348v-.0004c.0611.1961.688 1.7523 3.6167 1.5058 0 .6299-.0113 2.8596-.0113 2.8596m10.1732-.0054V28.069c.0101-.7801-1.1309-1.5543-1.4156-2.2793 2.6071-.5597 7.634-2.2902 7.634-8.7359l-.0001.0001c-.0062-1.6438-.5681-3.2359-1.5922-4.5137.3478-1.4605.2391-2.99412-.3103-4.39022-.1084-.26875-.3305-.47421-.6048-.56015-.3885-.13438-1.8585-.38634-4.8536 1.57339v.0004c-1.2885-.34336-2.6172-.50547-3.9494-.48164a14.34856 14.34856 0 0 0-3.9552.48164c-3.073-2.00471-4.6706-1.6801-4.9921-1.5848-.2759.08945-.4976.29922-.6048.57109-.551 1.3914-.6636 2.92069-.3215 4.37929-1.0579 1.2711-1.62164 2.8871-1.58648 4.5469 0 6.1938 4.51108 8.0641 7.72848 8.725-.1653.4078-1.258 1.4489-1.3325 2.1989v1.65" stroke="currentColor" stroke-width="1.7" stroke-linecap="round" stroke-linejoin="round"/>
</svg>
