<svg width="40" height="40" fill="none" xmlns="http://www.w3.org/2000/svg">
  <path d="M23.3339 11.59c-2.5629 1.066-7.6851 3.2724-15.36669 6.6192-1.24737.496-1.90079.9813-1.96028 1.4558-.1142.9109 1.19732 1.1945 2.84749 1.7309 1.34538.4374 3.15518.949 4.09598.9693.8534.0185 1.806-.3334 2.8576-1.0555 7.1771-4.8447 10.882-7.2935 11.1146-7.3463.1641-.0373.3915-.0841.5455.0529.1541.1369.139.3962.1226.4658-.1305.5563-6.8725 6.6888-7.2605 7.0918-1.4827 1.5399-3.1692 2.4821-.5676 4.1965 2.2511 1.4835 3.5613 2.4299 5.8805 3.9501 1.482.9715 2.644 2.1236 4.1742 1.9827.7041-.0647 1.4314-.7268 1.8008-2.7014.8729-4.6667 2.5887-14.7778 2.9853-18.9444.0347-.365-.009-.83219-.0441-1.03727-.0351-.20508-.1084-.49728-.375-.71359-.3157-.25617-.8031-.31019-1.0211-.30635-.991.01745-2.5116.54617-9.8293 3.58981Z" stroke="currentColor" stroke-width="1.7"/>
</svg>
